<mxfile host="65bd71144e">
    <diagram id="HTOfNAnJ_xgK9rJMICsc" name="Page-1">
        <mxGraphModel dx="1127" dy="890" grid="1" gridSize="10" guides="1" tooltips="1" connect="1" arrows="1" fold="1" page="1" pageScale="1" pageWidth="850" pageHeight="1100" math="0" shadow="0">
            <root>
                <mxCell id="0"/>
                <mxCell id="1" parent="0"/>
                <mxCell id="4" style="edgeStyle=none;html=1;entryX=0.5;entryY=0;entryDx=0;entryDy=0;strokeColor=#000000;" edge="1" parent="1" source="2">
                    <mxGeometry relative="1" as="geometry">
                        <mxPoint x="390" y="120" as="targetPoint"/>
                    </mxGeometry>
                </mxCell>
                <mxCell id="2" value="start" style="strokeWidth=2;html=1;shape=mxgraph.flowchart.start_1;whiteSpace=wrap;strokeColor=#000000;" vertex="1" parent="1">
                    <mxGeometry x="340" y="30" width="100" height="60" as="geometry"/>
                </mxCell>
                <mxCell id="5" value="minutos = 0" style="shape=parallelogram;html=1;strokeWidth=2;perimeter=parallelogramPerimeter;whiteSpace=wrap;rounded=1;arcSize=12;size=0.23;strokeColor=#000000;" vertex="1" parent="1">
                    <mxGeometry x="240" y="120" width="280" height="60" as="geometry"/>
                </mxCell>
                <mxCell id="6" value="&lt;div&gt;&quot;Digite el total de minutos transcurridos: &quot;&lt;/div&gt;" style="strokeWidth=2;html=1;shape=mxgraph.flowchart.document2;whiteSpace=wrap;size=0.25;strokeColor=#000000;" vertex="1" parent="1">
                    <mxGeometry x="310" y="210" width="160" height="90" as="geometry"/>
                </mxCell>
                <mxCell id="7" style="edgeStyle=none;html=1;entryX=0.5;entryY=0;entryDx=0;entryDy=0;entryPerimeter=0;exitX=0.534;exitY=0.999;exitDx=0;exitDy=0;exitPerimeter=0;strokeColor=#000000;" edge="1" parent="1" source="5" target="6">
                    <mxGeometry relative="1" as="geometry"/>
                </mxCell>
                <mxCell id="25" style="edgeStyle=none;html=1;entryX=0.5;entryY=0;entryDx=0;entryDy=0;" edge="1" parent="1" source="9" target="24">
                    <mxGeometry relative="1" as="geometry"/>
                </mxCell>
                <mxCell id="9" value="&lt;div&gt;&lt;br&gt;&lt;/div&gt;&lt;div&gt;minutos&lt;/div&gt;" style="html=1;strokeWidth=2;shape=manualInput;whiteSpace=wrap;rounded=1;size=26;arcSize=11;strokeColor=#000000;" vertex="1" parent="1">
                    <mxGeometry x="320" y="320" width="140" height="70" as="geometry"/>
                </mxCell>
                <mxCell id="10" style="edgeStyle=none;html=1;entryX=0.496;entryY=0.163;entryDx=0;entryDy=0;entryPerimeter=0;exitX=0.494;exitY=0.882;exitDx=0;exitDy=0;exitPerimeter=0;strokeColor=#000000;" edge="1" parent="1" source="6" target="9">
                    <mxGeometry relative="1" as="geometry"/>
                </mxCell>
                <mxCell id="11" value="tiempo(minutos)" style="rounded=1;whiteSpace=wrap;html=1;absoluteArcSize=1;arcSize=14;strokeWidth=2;strokeColor=#000000;fontSize=14;" vertex="1" parent="1">
                    <mxGeometry x="640" y="30" width="270" height="60" as="geometry"/>
                </mxCell>
                <mxCell id="17" style="edgeStyle=none;html=1;exitX=0.519;exitY=1;exitDx=0;exitDy=0;exitPerimeter=0;strokeColor=#000000;" edge="1" parent="1" source="12">
                    <mxGeometry relative="1" as="geometry">
                        <mxPoint x="770" y="220" as="targetPoint"/>
                    </mxGeometry>
                </mxCell>
                <mxCell id="12" value="horas = 0;" style="shape=parallelogram;html=1;strokeWidth=2;perimeter=parallelogramPerimeter;whiteSpace=wrap;rounded=1;arcSize=12;size=0.23;strokeColor=#000000;fontSize=14;" vertex="1" parent="1">
                    <mxGeometry x="630" y="120" width="270" height="60" as="geometry"/>
                </mxCell>
                <mxCell id="16" value="" style="edgeStyle=none;orthogonalLoop=1;jettySize=auto;html=1;exitX=0.5;exitY=1;exitDx=0;exitDy=0;entryX=0.537;entryY=0.007;entryDx=0;entryDy=0;entryPerimeter=0;strokeColor=#000000;" edge="1" parent="1" source="11" target="12">
                    <mxGeometry width="100" relative="1" as="geometry">
                        <mxPoint x="790" y="250" as="sourcePoint"/>
                        <mxPoint x="890" y="250" as="targetPoint"/>
                        <Array as="points"/>
                    </mxGeometry>
                </mxCell>
                <mxCell id="20" style="edgeStyle=none;html=1;" edge="1" parent="1" source="18" target="19">
                    <mxGeometry relative="1" as="geometry"/>
                </mxCell>
                <mxCell id="18" value="horas = minutos / 60;&lt;div&gt;minutos = minutos % 60;&lt;/div&gt;" style="rounded=1;whiteSpace=wrap;html=1;absoluteArcSize=1;arcSize=14;strokeWidth=2;strokeColor=#000000;fontSize=14;" vertex="1" parent="1">
                    <mxGeometry x="640" y="220" width="250" height="90" as="geometry"/>
                </mxCell>
                <mxCell id="19" value="&quot;Horas: &quot;+ horas + &quot; Minutos: &quot; + minutos;" style="strokeWidth=2;html=1;shape=mxgraph.flowchart.document2;whiteSpace=wrap;size=0.25;fontSize=14;" vertex="1" parent="1">
                    <mxGeometry x="640" y="340" width="250" height="100" as="geometry"/>
                </mxCell>
                <mxCell id="21" value="End" style="strokeWidth=2;html=1;shape=mxgraph.flowchart.start_1;whiteSpace=wrap;strokeColor=#000000;" vertex="1" parent="1">
                    <mxGeometry x="715" y="480" width="100" height="60" as="geometry"/>
                </mxCell>
                <mxCell id="23" style="edgeStyle=none;html=1;entryX=0.5;entryY=0;entryDx=0;entryDy=0;entryPerimeter=0;exitX=0.499;exitY=0.904;exitDx=0;exitDy=0;exitPerimeter=0;" edge="1" parent="1" source="19" target="21">
                    <mxGeometry relative="1" as="geometry"/>
                </mxCell>
                <mxCell id="26" style="edgeStyle=none;html=1;" edge="1" parent="1" source="24">
                    <mxGeometry relative="1" as="geometry">
                        <mxPoint x="390" y="520" as="targetPoint"/>
                    </mxGeometry>
                </mxCell>
                <mxCell id="24" value="tiempo(minutos)" style="shape=hexagon;perimeter=hexagonPerimeter2;whiteSpace=wrap;html=1;fixedSize=1;fontSize=14;strokeWidth=2;" vertex="1" parent="1">
                    <mxGeometry x="230" y="430" width="320" height="50" as="geometry"/>
                </mxCell>
                <mxCell id="27" value="End" style="strokeWidth=2;html=1;shape=mxgraph.flowchart.start_1;whiteSpace=wrap;strokeColor=#000000;" vertex="1" parent="1">
                    <mxGeometry x="340" y="520" width="100" height="60" as="geometry"/>
                </mxCell>
            </root>
        </mxGraphModel>
    </diagram>
</mxfile>